#!OML:ASF E:\emotionWalksFemale\Project 1\Capture day 1\Session 1\Female1.ASF
:FULLY-SPECIFIED
:DEGREES
251
root 8.97013 14.572 23.1773 191.153 5.07745 -177.011
lowerback 17.0781 -0.977258 2.1339
upperback -2.55946 -0.571123 1.7981
thorax -12.4935 -0.31458 0.932263
lowerneck -11.3487 0.339238 -2.47052
upperneck -8.92558 1.91964 4.06061
head -0.968968 1.4627 1.73514
rclavicle -5.39203e-015 -3.16068e-014
rhumerus -31.4525 -21.1339 -57.6424
rradius 38.3772
rwrist 1.35283
rhand -5.04867 -54.9704
rfingers 7.12502
rthumb 20.7466 -83.8814
lclavicle -5.39203e-015 -3.16068e-014
lhumerus -33.3465 10.9517 65.9127
lradius 40.6899
lwrist -4.58849
lhand 1.05896 -31.0232
lfingers 7.12502
lthumb 26.6043 -2.87212
rfemur -33.2098 1.909 27.7299
rtibia 49.5059
rfoot -26.6069 -18.7115
rtoes -11.9466
lfemur -38.7018 5.00099 -21.211
ltibia 57.4534
lfoot -32.173 16.2804
ltoes -20.4448
252
root 8.96583 14.518 23.184 191.536 4.78335 -176.941
lowerback 17.6132 -1.0357 2.11293
upperback -2.75141 -0.615915 1.88882
thorax -13.0306 -0.328915 1.07392
lowerneck -11.343 0.362716 -2.42035
upperneck -9.27054 1.9943 3.95735
head -1.0815 1.51472 1.69282
rclavicle 6.60959e-015 -2.98177e-015
rhumerus -30.7457 -22.322 -56.8996
rradius 37.9364
rwrist -1.17122
rhand -5.03751 -56.3057
rfingers 7.12502
rthumb 20.7574 -85.2155
lclavicle 6.60959e-015 -2.98177e-015
lhumerus -33.5071 9.76831 65.8981
lradius 41.3926
lwrist -4.50933
lhand -1.17139 -31.6433
lfingers 7.12502
lthumb 24.4679 -3.18607
rfemur -34.2738 1.52385 27.9066
rtibia 50.6984
rfoot -26.9742 -18.8393
rtoes -12.2545
lfemur -39.8935 5.34743 -21.3772
ltibia 58.5635
lfoot -32.2208 16.0901
ltoes -20.6856
253
root 8.96337 14.4579 23.1929 191.886 4.46534 -176.927
lowerback 18.1647 -1.04831 2.02505
upperback -2.88224 -0.614623 1.97909
thorax -13.5085 -0.315151 1.24057
lowerneck -11.7277 0.356044 -2.42161
upperneck -9.37318 2.03317 3.82669
head -1.05237 1.55647 1.65458
rclavicle -2.10215e-014 4.77083e-015
rhumerus -30.0406 -24.5269 -55.6961
rradius 37.1044
rwrist -1.30294
rhand -2.92619 -56.5539
rfingers 7.12502
rthumb 22.7848 -85.2283
lclavicle -2.10215e-014 4.77083e-015
lhumerus -33.5702 8.54404 65.9985
lradius 41.9882
lwrist -4.45444
lhand -3.51878 -32.6413
lfingers 7.12502
lthumb 22.216 -3.89802
rfemur -35.351 1.13073 28.0234
rtibia 51.9647
rfoot -27.4486 -18.8338
rtoes -12.103
lfemur -41.0761 5.74695 -21.629
ltibia 59.7023
lfoot -32.5083 15.6208
ltoes -19.7459
254
root 8.95985 14.3958 23.2007 192.235 4.12123 -177.044
lowerback 18.7771 -1.04724 1.90668
upperback -3.09143 -0.619376 1.96077
thorax -14.1178 -0.308606 1.30969
lowerneck -12.217 0.380468 -2.33961
upperneck -9.18364 2.07478 3.74068
head -0.912995 1.58848 1.61925
rclavicle -5.91384e-015 -2.08724e-014
rhumerus -29.3726 -24.4436 -55.992
rradius 37.5606
rwrist -6.92001
rhand -10.5064 -60.1741
rfingers 7.12502
rthumb 15.496 -89.5731
lclavicle -5.91384e-015 -2.08724e-014
lhumerus -33.8608 7.13068 66.0159
lradius 42.667
lwrist -4.04535
lhand -4.93127 -33.7378
lfingers 7.12502
lthumb 20.8594 -4.83918
rfemur -36.4734 0.688505 28.0137
rtibia 53.2951
rfoot -27.9767 -19.0148
rtoes -12.4134
lfemur -42.2908 6.09604 -22.0522
ltibia 60.8842
lfoot -32.9821 14.829
ltoes -16.5201
255
root 8.95641 14.329 23.2069 192.603 3.79027 -177.072
lowerback 19.2711 -1.17327 1.71885
upperback -3.54067 -0.819163 1.92534
thorax -14.9438 -0.385835 1.46608
lowerneck -11.6569 0.692285 -1.68391
upperneck -9.25002 2.36444 3.39232
head -1.02284 1.69266 1.3929
rclavicle -4.02539e-015 2.98177e-016
rhumerus -29.2231 -25.0811 -55.8023
rradius 37.4538
rwrist -8.45059
rhand -12.9697 -61.7765
rfingers 7.12502
rthumb 13.1224 -268.656
lclavicle -4.02539e-015 2.98177e-016
lhumerus -34.9692 5.73222 65.6051
lradius 43.4592
lwrist -3.449
lhand -6.40818 -35.1524
lfingers 7.12502
lthumb 19.4399 -6.10417
rfemur -37.6017 0.309473 28.1201
rtibia 54.64
rfoot -28.5052 -19.3527
rtoes -13.1284
lfemur -43.555 6.39673 -22.3556
ltibia 62.107
lfoot -33.376 14.1853
ltoes -13.6716
256
root 8.95587 14.259 23.2115 192.92 3.49527 -176.911
lowerback 16.7006 -1.33521 2.35314
upperback -2.20401 -1.06249 1.52
thorax -11.876 -0.571943 0.616896
lowerneck -11.0817 0.701574 -1.02444
upperneck -11.3911 2.62095 3.33543
head -1.80516 1.88658 1.25018
rclavicle 4.39539e-015 1.8956e-014
rhumerus -26.648 -27.3786 -57.3673
rradius 37.2097
rwrist -9.50671
rhand -14.8103 -63.833
rfingers 7.12502
rthumb 11.3477 -266.494
lclavicle 4.39539e-015 1.8956e-014
lhumerus -33.0308 5.19535 64.956
lradius 43.7555
lwrist -3.37382
lhand -8.92912 -37.1181
lfingers 7.12502
lthumb 17.0147 -7.84328
rfemur -38.6114 0.0654194 28.4099
rtibia 55.9501
rfoot -29.0634 -19.4544
rtoes -12.7566
lfemur -44.7237 6.75184 -22.4158
ltibia 63.3173
lfoot -33.5675 13.9582
ltoes -13.4925
257
root 8.9552 14.1887 23.216 193.156 3.22106 -176.817
lowerback 17.2352 -1.31262 2.2227
upperback -2.49002 -1.02277 1.62197
thorax -12.512 -0.541495 0.813921
lowerneck -10.7276 0.853926 -0.88415
upperneck -11.5778 2.79952 3.09805
head -1.92217 1.96672 1.14828
rclavicle 1.4328e-014 -1.12438e-015
rhumerus -25.9387 -28.6101 -57.2471
rradius 36.7916
rwrist -10.2321
rhand -16.8165 -66.2854
rfingers 7.12502
rthumb 9.41244 -263.945
lclavicle 1.4328e-014 -1.12438e-015
lhumerus -33.6525 4.18874 64.9637
lradius 44.1985
lwrist -3.00065
lhand -11.3239 -39.0501
lfingers 7.12502
lthumb 14.7084 -9.59185
rfemur -39.5337 -0.197253 28.6137
rtibia 57.236
rfoot -29.6159 -19.4159
rtoes -11.7968
lfemur -45.7354 7.08975 -22.5154
ltibia 64.4831
lfoot -33.7268 13.7011
ltoes -13.4768
258
root 8.95414 14.126 23.2206 193.299 3.00163 -176.916
lowerback 17.3644 -1.23741 2.08566
upperback -2.38807 -0.943223 1.65122
thorax -12.4674 -0.491451 0.902304
lowerneck -10.9838 0.878898 -1.18822
upperneck -11.7089 2.91511 3.12401
head -1.93155 2.0572 1.21217
rclavicle -1.17718e-014 1.44367e-014
rhumerus -24.3616 -30.1172 -57.7275
rradius 36.3033
rwrist -11.4372
rhand -19.435 -69.0234
rfingers 7.12502
rthumb 6.88523 -261.109
lclavicle -1.17718e-014 1.44367e-014
lhumerus -33.5659 3.41701 65.2297
lradius 44.1775
lwrist -2.01111
lhand -13.0548 -40.492
lfingers 7.12502
lthumb 13.0403 -10.9196
rfemur -40.3597 -0.518259 28.6127
rtibia 58.4705
rfoot -30.2281 -19.4958
rtoes -11.3584
lfemur -46.5395 7.35239 -22.7638
ltibia 65.5466
lfoot -33.9742 13.1975
ltoes -12.8765
259
root 8.95316 14.0608 23.2223 193.448 2.82103 -177.041
lowerback 17.4403 -1.14554 1.96174
upperback -2.02392 -0.844406 1.64625
thorax -12.0932 -0.431806 0.931563
lowerneck -12.2258 0.790716 -1.42589
upperneck -11.6492 2.93483 3.08108
head -1.71505 2.13521 1.25299
rclavicle -2.98177e-015 -1.95803e-014
rhumerus -22.0085 -32.1552 -58.7787
rradius 35.5611
rwrist -11.9291
rhand -21.842 -71.4266
rfingers 7.12502
rthumb 4.5613 -258.643
lclavicle -2.98177e-015 -1.95803e-014
lhumerus -32.9378 3.12387 65.5214
lradius 43.9489
lwrist -1.48196
lhand -14.3839 -41.476
lfingers 7.12502
lthumb 11.7589 -11.8261
rfemur -41.1863 -0.810994 28.5827
rtibia 59.6974
rfoot -30.7869 -19.6049
rtoes -11.165
lfemur -47.3083 7.52242 -22.971
ltibia 66.5606
lfoot -34.2835 12.5951
ltoes -12.6291
260
root 8.95191 13.9962 23.2218 193.653 2.55181 -177.012
lowerback 17.7453 -1.05419 2.10369
upperback -2.05576 -0.688765 1.57653
thorax -12.3109 -0.371722 0.737843
lowerneck -12.456 0.737803 -1.39351
upperneck -11.7709 2.90167 2.91644
head -1.71377 2.14011 1.1954
rclavicle 9.34288e-015 1.88845e-015
rhumerus -20.3128 -33.3239 -60.0488
rradius 35.2472
rwrist -13.3896
rhand -23.4118 -73.7724
rfingers 7.12502
rthumb 3.04546 -256.27
lclavicle 9.34288e-015 1.88845e-015
lhumerus -32.9402 2.72935 65.6732
lradius 43.7243
lwrist -1.62022
lhand -15.3931 -41.9945
lfingers 7.12502
lthumb 10.7856 -12.2914
rfemur -42.0084 -1.0662 28.7204
rtibia 60.8784
rfoot -31.259 -19.684
rtoes -11.0817
lfemur -48.1435 7.57027 -22.9446
ltibia 67.5581
lfoot -34.5638 12.0463
ltoes -13.5093
261
root 8.95207 13.9296 23.2213 193.817 2.23266 -176.926
lowerback 17.8 -1.00088 2.24158
upperback -2.01665 -0.584685 1.56648
thorax -12.2998 -0.331736 0.6191
lowerneck -12.3509 0.746232 -1.37874
upperneck -12.2146 2.97227 2.69362
head -1.87383 2.2012 1.11833
rclavicle 1.24489e-014 4.27387e-015
rhumerus -18.4599 -34.4261 -61.5355
rradius 34.7829
rwrist -13.7734
rhand -23.2925 -74.599
rfingers 7.12502
rthumb 3.16064 -255.445
lclavicle 1.24489e-014 4.27387e-015
lhumerus -33.0344 2.65723 65.6983
lradius 43.4775
lwrist -1.96566
lhand -15.7869 -42.2604
lfingers 7.12502
lthumb 10.4057 -12.5379
rfemur -42.7875 -1.31131 28.929
rtibia 62.0535
rfoot -31.8305 -19.7289
rtoes -10.5299
lfemur -48.9113 7.59131 -22.82
ltibia 68.5396
lfoot -34.7852 11.7541
ltoes -15.9254
